# xmcd CD database file
#
# Track frame offsets:
#	150
#	14237
#	32910
#	54647
#	71755
#	91502
#	102775
#	118335
#	136140
#	151872
#	171280
#
# Disc length: 2504 seconds
#
# Revision: 0
# Processed by: cddbd v1.5.1PL0 Copyright (c) Steve Scherf et al.
# Submitted via: CDex 1.51
#
DISCID=9209c60b
DTITLE=Time Five - A CAPELLA ?
DYEAR=1900
DGENRE=A Cappella
TTITLE0=CHINA DOLL
TTITLE1=IT'S ONLY LOVE
TTITLE2=HARD HABIT TO BREAK
TTITLE3=TAKE IT EASY
TTITLE4=LATELY
TTITLE5=SWEET SUE
TTITLE6=ON AND ON
TTITLE7=RUBY BABY
TTITLE8=NOTHING'S GONNA CHANGE MY LOVE FOR YOU
TTITLE9=RHYTHM IS GONNA GET YOU
TTITLE10=MY FOOLISH HEART
EXTD=
EXTT0=
EXTT1=
EXTT2=
EXTT3=
EXTT4=
EXTT5=
EXTT6=
EXTT7=
EXTT8=
EXTT9=
EXTT10=
PLAYORDER=
